<svg width="200" height="38" viewBox="0 0 200 38" fill="none" xmlns="http://www.w3.org/2000/svg">
<path d="M71.5059 10.325L67.2809 28H61.9809L59.1559 16.175L56.3059 28H51.0059L46.7809 10.325H51.4309L53.7059 23.125L56.8059 10.325H61.4809L64.5809 23.125L66.8809 10.325H71.5059ZM82.6004 13.9C84.2004 13.9 85.4671 14.4333 86.4004 15.5C87.3504 16.5667 87.8254 18.0333 87.8254 19.9V28H83.5504V20.4C83.5504 19.4667 83.3004 18.7417 82.8004 18.225C82.3171 17.6917 81.6671 17.425 80.8504 17.425C79.9837 17.425 79.2921 17.7 78.7754 18.25C78.2754 18.8 78.0254 19.5833 78.0254 20.6V28H73.7504V9.5H78.0254V16.6C78.4254 15.7667 79.0171 15.1083 79.8004 14.625C80.6004 14.1417 81.5337 13.9 82.6004 13.9ZM90.2449 10.125C90.2449 9.475 90.4783 8.94167 90.9449 8.525C91.4116 8.09167 92.0283 7.875 92.7949 7.875C93.5616 7.875 94.1783 8.09167 94.6449 8.525C95.1116 8.94167 95.3449 9.475 95.3449 10.125C95.3449 10.7583 95.1116 11.2917 94.6449 11.725C94.1783 12.1417 93.5616 12.35 92.7949 12.35C92.0283 12.35 91.4116 12.1417 90.9449 11.725C90.4783 11.2917 90.2449 10.7583 90.2449 10.125ZM94.9199 14.05V28H90.6449V14.05H94.9199ZM105.771 24.325V28H103.846C102.213 28 100.938 27.6 100.021 26.8C99.1215 25.9833 98.6715 24.6417 98.6715 22.775V17.65H96.7965V14.05H98.6715V10.625H102.946V14.05H105.746V17.65H102.946V22.85C102.946 23.4 103.055 23.7833 103.271 24C103.505 24.2167 103.888 24.325 104.421 24.325H105.771ZM121.424 20.65C121.424 21 121.383 21.3833 121.299 21.8H111.624C111.674 22.85 111.941 23.6083 112.424 24.075C112.908 24.525 113.524 24.75 114.274 24.75C114.908 24.75 115.433 24.5917 115.849 24.275C116.266 23.9583 116.541 23.55 116.674 23.05H121.199C121.016 24.0333 120.616 24.9167 119.999 25.7C119.383 26.4667 118.599 27.075 117.649 27.525C116.699 27.9583 115.641 28.175 114.474 28.175C113.108 28.175 111.891 27.8917 110.824 27.325C109.774 26.7417 108.949 25.9083 108.349 24.825C107.749 23.7417 107.449 22.475 107.449 21.025C107.449 19.5583 107.741 18.2917 108.324 17.225C108.924 16.1417 109.758 15.3167 110.824 14.75C111.891 14.1667 113.108 13.875 114.474 13.875C115.858 13.875 117.074 14.1583 118.124 14.725C119.174 15.2917 119.983 16.0917 120.549 17.125C121.133 18.1417 121.424 19.3167 121.424 20.65ZM117.099 20C117.116 19.0833 116.866 18.4 116.349 17.95C115.849 17.4833 115.224 17.25 114.474 17.25C113.691 17.25 113.041 17.4833 112.524 17.95C112.008 18.4167 111.716 19.1 111.649 20H117.099ZM131.728 10.15C133.978 10.15 135.836 10.7417 137.303 11.925C138.786 13.1083 139.744 14.7083 140.178 16.725H135.653C135.319 15.9083 134.803 15.2667 134.103 14.8C133.419 14.3333 132.603 14.1 131.653 14.1C130.403 14.1 129.394 14.5583 128.628 15.475C127.861 16.3917 127.478 17.6167 127.478 19.15C127.478 20.6833 127.861 21.9083 128.628 22.825C129.394 23.725 130.403 24.175 131.653 24.175C132.603 24.175 133.419 23.9417 134.103 23.475C134.803 23.0083 135.319 22.375 135.653 21.575H140.178C139.744 23.575 138.786 25.175 137.303 26.375C135.836 27.5583 133.978 28.15 131.728 28.15C130.011 28.15 128.503 27.775 127.203 27.025C125.903 26.2583 124.894 25.1917 124.178 23.825C123.478 22.4583 123.128 20.9 123.128 19.15C123.128 17.4 123.478 15.8417 124.178 14.475C124.894 13.1083 125.903 12.05 127.203 11.3C128.503 10.5333 130.011 10.15 131.728 10.15ZM149.099 13.875C150.482 13.875 151.715 14.1667 152.799 14.75C153.899 15.3167 154.757 16.1417 155.374 17.225C156.007 18.3083 156.324 19.575 156.324 21.025C156.324 22.475 156.007 23.7417 155.374 24.825C154.757 25.9083 153.899 26.7417 152.799 27.325C151.715 27.8917 150.482 28.175 149.099 28.175C147.715 28.175 146.474 27.8917 145.374 27.325C144.274 26.7417 143.407 25.9083 142.774 24.825C142.157 23.7417 141.849 22.475 141.849 21.025C141.849 19.575 142.157 18.3083 142.774 17.225C143.407 16.1417 144.274 15.3167 145.374 14.75C146.474 14.1667 147.715 13.875 149.099 13.875ZM149.099 17.575C148.282 17.575 147.59 17.875 147.024 18.475C146.474 19.0583 146.199 19.9083 146.199 21.025C146.199 22.1417 146.474 22.9917 147.024 23.575C147.59 24.1583 148.282 24.45 149.099 24.45C149.915 24.45 150.599 24.1583 151.149 23.575C151.699 22.9917 151.974 22.1417 151.974 21.025C151.974 19.9083 151.699 19.0583 151.149 18.475C150.599 17.875 149.915 17.575 149.099 17.575ZM178.294 13.875C179.36 13.875 180.277 14.1167 181.044 14.6C181.81 15.0833 182.377 15.7417 182.744 16.575V14.05H186.994V28H182.744V25.475C182.377 26.3083 181.81 26.9667 181.044 27.45C180.277 27.9333 179.36 28.175 178.294 28.175C177.144 28.175 176.11 27.8917 175.194 27.325C174.294 26.7417 173.577 25.9083 173.044 24.825C172.527 23.7417 172.269 22.475 172.269 21.025C172.269 19.5583 172.527 18.2917 173.044 17.225C173.577 16.1417 174.294 15.3167 175.194 14.75C176.11 14.1667 177.144 13.875 178.294 13.875ZM179.669 17.625C178.752 17.625 178.01 17.925 177.444 18.525C176.894 19.125 176.619 19.9583 176.619 21.025C176.619 22.0917 176.894 22.925 177.444 23.525C178.01 24.125 178.752 24.425 179.669 24.425C180.569 24.425 181.302 24.1167 181.869 23.5C182.452 22.8833 182.744 22.0583 182.744 21.025C182.744 19.975 182.452 19.15 181.869 18.55C181.302 17.9333 180.569 17.625 179.669 17.625ZM194.212 16.675C194.745 15.825 195.429 15.15 196.262 14.65C197.112 14.15 198.029 13.9 199.012 13.9V18.475H197.787C196.654 18.475 195.77 18.7167 195.137 19.2C194.52 19.6833 194.212 20.5 194.212 21.65V28H189.937V14.05H194.212V16.675Z" fill="white"/>
<path d="M162.815 9.5V28H158.54V9.5H162.815ZM170.042 9.5V28H165.767V9.5H170.042Z" fill="#40DDB6"/>
<path d="M14.3814 6H8.50235L25.2666 35L28.2062 29.9152L14.3814 6Z" fill="#40DDB6"/>
<path d="M5.88496 6H0.00585938L16.5565 34.6299L19.4142 29.4051L5.88496 6Z" fill="#40DDB6"/>
<path d="M32.5366 22.6948L36.3107 16.1629H30.4333L29.597 17.61L25.4389 10.4196H39.6259L42.1765 6H17.0059L29.6003 27.7863L32.5382 22.6981L32.5366 22.6948Z" fill="#6B77E5"/>
</svg>
