<svg width="28" height="28" viewBox="0 0 28 28" fill="none" xmlns="http://www.w3.org/2000/svg">
<path d="M26.1943 21.3734C25.2018 20.3734 22.798 18.9141 21.6317 18.326C20.1129 17.5611 19.9879 17.4986 18.7942 18.3854C17.9979 18.9772 17.4685 19.506 16.5366 19.3072C15.6047 19.1085 13.5796 17.9879 11.8065 16.2205C10.0333 14.4531 8.84766 12.3694 8.64828 11.4407C8.4489 10.512 8.98641 9.98888 9.57268 9.19079C10.3989 8.06584 10.3364 7.87835 9.63018 6.35966C9.07954 5.17846 7.57763 2.79732 6.57385 1.80986C5.50008 0.74928 5.50008 0.936772 4.80818 1.22426C4.2449 1.46124 3.70451 1.74931 3.19377 2.08485C2.19375 2.74919 1.63873 3.30104 1.2506 4.13038C0.862464 4.95972 0.688085 6.90402 2.69251 10.5451C4.69693 14.1862 6.10322 16.048 9.01391 18.9504C11.9246 21.8527 14.1628 23.4133 17.4347 25.2482C21.4823 27.515 23.0349 27.0731 23.8668 26.6857C24.6987 26.2982 25.2531 25.7482 25.9187 24.7482C26.2551 24.2384 26.5439 23.6986 26.7812 23.1358C27.0694 22.4465 27.2569 22.4465 26.1943 21.3734Z" stroke="#40DDB6" stroke-width="2" stroke-miterlimit="10"/>
</svg>
