<!-- Generated by IcoMoon.io -->
<svg version="1.1" xmlns="http://www.w3.org/2000/svg" width="640" height="640" viewBox="0 0 640 640">
<title></title>
<g id="icomoon-ignore">
</g>
<path fill="#000" d="M388.543 408.543c-27.798 19.808-61.809 31.457-98.543 31.457-93.888 0-170-76.112-170-170s76.112-170 170-170c93.888 0 170 76.112 170 170 0 46.944-19.028 89.444-49.792 120.208l119.947 119.947c5.501 5.501 5.367 14.322-0.156 19.844-5.561 5.561-14.408 5.592-19.844 0.156l-121.613-121.613zM290 420c82.842 0 150-67.158 150-150s-67.158-150-150-150c-82.843 0-150 67.157-150 150s67.157 150 150 150v0z"></path>
</svg>
