<svg width="38" height="38" viewBox="0 0 38 38" fill="none" xmlns="http://www.w3.org/2000/svg">
<rect width="38" height="38" fill="#EDEDED"/>
<g id="Frame 511">
<rect width="309" height="83" transform="translate(-64 -23)" fill="white"/>
<g id="Group 11">
<rect id="Rectangle 69" width="37.024" height="37.024" rx="10.68" fill="#F6F6F6"/>
<path id="Vector" d="M18.4736 14.4755C16.2625 14.4755 14.4791 16.2589 14.4791 18.47C14.4791 20.6811 16.2625 22.4646 18.4736 22.4646C20.6847 22.4646 22.4682 20.6811 22.4682 18.47C22.4682 16.2589 20.6847 14.4755 18.4736 14.4755ZM18.4736 21.067C17.0448 21.067 15.8766 19.9024 15.8766 18.47C15.8766 17.0377 17.0413 15.873 18.4736 15.873C19.906 15.873 21.0706 17.0377 21.0706 18.47C21.0706 19.9024 19.9025 21.067 18.4736 21.067V21.067ZM23.5633 14.3121C23.5633 14.8301 23.1461 15.2438 22.6316 15.2438C22.1136 15.2438 21.6999 14.8266 21.6999 14.3121C21.6999 13.7975 22.1171 13.3804 22.6316 13.3804C23.1461 13.3804 23.5633 13.7975 23.5633 14.3121ZM26.209 15.2577C26.1499 14.0096 25.8648 12.9041 24.9505 11.9932C24.0396 11.0823 22.9341 10.7973 21.686 10.7347C20.3997 10.6617 16.5441 10.6617 15.2578 10.7347C14.0132 10.7938 12.9077 11.0789 11.9933 11.9897C11.079 12.9006 10.7974 14.0061 10.7348 15.2542C10.6618 16.5405 10.6618 20.3961 10.7348 21.6824C10.7939 22.9305 11.079 24.036 11.9933 24.9469C12.9077 25.8577 14.0097 26.1428 15.2578 26.2054C16.5441 26.2784 20.3997 26.2784 21.686 26.2054C22.9341 26.1463 24.0396 25.8612 24.9505 24.9469C25.8613 24.036 26.1464 22.9305 26.209 21.6824C26.282 20.3961 26.282 16.544 26.209 15.2577V15.2577ZM24.5472 23.0626C24.276 23.744 23.7511 24.2689 23.0662 24.5436C22.0406 24.9504 19.607 24.8565 18.4736 24.8565C17.3403 24.8565 14.9032 24.9469 13.8811 24.5436C13.1997 24.2724 12.6747 23.7475 12.4001 23.0626C11.9933 22.037 12.0872 19.6034 12.0872 18.47C12.0872 17.3367 11.9968 14.8996 12.4001 13.8775C12.6713 13.1961 13.1962 12.6711 13.8811 12.3965C14.9067 11.9897 17.3403 12.0836 18.4736 12.0836C19.607 12.0836 22.0441 11.9932 23.0662 12.3965C23.7476 12.6677 24.2725 13.1926 24.5472 13.8775C24.954 14.9031 24.8601 17.3367 24.8601 18.47C24.8601 19.6034 24.954 22.0405 24.5472 23.0626Z" fill="#2A2F2F"/>
</g>
</g>
</svg>
