<svg width="38" height="38" viewBox="0 0 38 38" fill="none" xmlns="http://www.w3.org/2000/svg">
<rect width="38" height="38" fill="#EDEDED"/>
<g id="Frame 511">
<rect width="309" height="83" transform="translate(-118 -23)" fill="white"/>
<g id="Group 13">
<rect id="Rectangle 71" width="37.024" height="37.024" rx="10.68" fill="#F6F6F6"/>
<path id="Vector" d="M27.3624 14.9947C27.3737 15.1529 27.3737 15.311 27.3737 15.4691C27.3737 20.2918 23.703 25.8487 16.9941 25.8487C14.9273 25.8487 13.0072 25.25 11.3921 24.211C11.6858 24.2449 11.9681 24.2562 12.2731 24.2562C13.9785 24.2562 15.5484 23.6802 16.8021 22.6976C15.1983 22.6637 13.8543 21.6133 13.3912 20.1676C13.6171 20.2015 13.843 20.2241 14.0802 20.2241C14.4077 20.2241 14.7353 20.1789 15.0402 20.0998C13.3686 19.761 12.1149 18.2927 12.1149 16.5195V16.4743C12.6006 16.7454 13.1653 16.9148 13.7639 16.9374C12.7813 16.2823 12.1375 15.1642 12.1375 13.8992C12.1375 13.2215 12.3182 12.6003 12.6345 12.0582C14.4303 14.2719 17.1297 15.7176 20.1565 15.8757C20.1001 15.6046 20.0662 15.3223 20.0662 15.0399C20.0662 13.0295 21.6926 11.3918 23.7143 11.3918C24.7646 11.3918 25.7134 11.8323 26.3797 12.5439C27.2042 12.3858 27.9948 12.0808 28.6951 11.6629C28.424 12.51 27.848 13.2216 27.0913 13.6733C27.8254 13.5943 28.537 13.3909 29.192 13.1086C28.6952 13.8314 28.0739 14.4752 27.3624 14.9947V14.9947Z" fill="#2A2F2F"/>
</g>
</g>
</svg>
