<svg width="49" height="48" viewBox="0 0 49 48" fill="none" xmlns="http://www.w3.org/2000/svg">
<path d="M41 40.5H8" stroke="white" stroke-width="2" stroke-linecap="round" stroke-linejoin="round"/>
<path d="M27.5 15V33C27.5 33.8284 28.1716 34.5 29 34.5H36.5C37.3284 34.5 38 33.8284 38 33V15C38 14.1716 37.3284 13.5 36.5 13.5H29C28.1716 13.5 27.5 14.1716 27.5 15Z" stroke="white" stroke-width="2" stroke-linecap="round" stroke-linejoin="round"/>
<path d="M20 6H12.5C11.6716 6 11 6.67157 11 7.5V33C11 33.8284 11.6716 34.5 12.5 34.5H20C20.8284 34.5 21.5 33.8284 21.5 33V7.5C21.5 6.67157 20.8284 6 20 6Z" stroke="white" stroke-width="2" stroke-linecap="round" stroke-linejoin="round"/>
</svg>
