<svg width="42" height="42" viewBox="0 0 42 42" fill="none" xmlns="http://www.w3.org/2000/svg">
<path d="M2.625 35.4375H39.375" stroke="white" stroke-width="2" stroke-linecap="round" stroke-linejoin="round"/>
<path d="M23.625 35.4375V6.5625C23.625 6.2144 23.4867 5.88056 23.2406 5.63442C22.9944 5.38828 22.6606 5.25 22.3125 5.25H6.5625C6.2144 5.25 5.88056 5.38828 5.63442 5.63442C5.38828 5.88056 5.25 6.2144 5.25 6.5625V35.4375" stroke="white" stroke-width="2" stroke-linecap="round" stroke-linejoin="round"/>
<path d="M36.75 35.4375V17.0625C36.75 16.7144 36.6117 16.3806 36.3656 16.1344C36.1194 15.8883 35.7856 15.75 35.4375 15.75H23.625" stroke="white" stroke-width="2" stroke-linecap="round" stroke-linejoin="round"/>
<path d="M10.5 11.8125H15.75" stroke="white" stroke-width="2" stroke-linecap="round" stroke-linejoin="round"/>
<path d="M13.125 22.3125H18.375" stroke="white" stroke-width="2" stroke-linecap="round" stroke-linejoin="round"/>
<path d="M10.5 28.875H15.75" stroke="white" stroke-width="2" stroke-linecap="round" stroke-linejoin="round"/>
<path d="M28.875 28.875H31.5" stroke="white" stroke-width="2" stroke-linecap="round" stroke-linejoin="round"/>
<path d="M28.875 22.3125H31.5" stroke="white" stroke-width="2" stroke-linecap="round" stroke-linejoin="round"/>
</svg>
