<svg width="36" height="36" viewBox="0 0 36 36" fill="none" xmlns="http://www.w3.org/2000/svg">
<path d="M23.4997 34.12H10.6597C8.31969 34.12 6.42969 32.23 6.42969 29.89V9" stroke="white" stroke-width="2" stroke-miterlimit="10"/>
<path d="M3.58008 1H25.2801C27.5501 1 29.4001 2.84 29.4001 5.12V14.39" stroke="white" stroke-width="2" stroke-miterlimit="10"/>
<path d="M6.42 8.28H1V3.71C1 2.21 2.21 1 3.71 1C5.21 1 6.42 2.21 6.42 3.71V8.28Z" stroke="white" stroke-width="2" stroke-miterlimit="10"/>
<path d="M34.3201 21.9999L33.1001 23.8199L32.6701 25.9699L30.5201 26.3999L28.7001 27.6199L26.8801 26.3999L24.7301 25.9699L24.3001 23.8199L23.0801 21.9999L24.3001 20.1799L24.7301 18.0299L26.8801 17.5999L28.7001 16.3799L30.5201 17.5999L32.6701 18.0299L33.1001 20.1799L34.3201 21.9999Z" stroke="white" stroke-width="2" stroke-miterlimit="10"/>
<path d="M31.8104 25.8501V33.3301L28.7104 31.2501L25.6104 33.3301V25.8501" stroke="white" stroke-width="2" stroke-miterlimit="10"/>
<path d="M12.0703 7.25H22.2803" stroke="white" stroke-width="2" stroke-miterlimit="10"/>
<path d="M12.0703 12.5H22.2803" stroke="white" stroke-width="2" stroke-miterlimit="10"/>
<path d="M12.0703 17.6899H22.2803" stroke="white" stroke-width="2" stroke-miterlimit="10"/>
<path d="M12.0703 22.77H18.8403" stroke="white" stroke-width="2" stroke-miterlimit="10"/>
<path d="M12.0703 27.96H18.8403" stroke="white" stroke-width="2" stroke-miterlimit="10"/>
</svg>
