<svg width="43" height="42" viewBox="0 0 43 42" fill="none" xmlns="http://www.w3.org/2000/svg">
<path d="M25.4375 5.25V14.4375H34.625" stroke="white" stroke-width="2" stroke-linecap="round" stroke-linejoin="round"/>
<path d="M24.7812 21L28.7188 24.9375L24.7812 28.875" stroke="white" stroke-width="2" stroke-linecap="round" stroke-linejoin="round"/>
<path d="M18.2188 21L14.2812 24.9375L18.2188 28.875" stroke="white" stroke-width="2" stroke-linecap="round" stroke-linejoin="round"/>
<path d="M33.3125 36.75C33.6606 36.75 33.9944 36.6117 34.2406 36.3656C34.4867 36.1194 34.625 35.7856 34.625 35.4375V14.4375L25.4375 5.25H9.6875C9.3394 5.25 9.00556 5.38828 8.75942 5.63442C8.51328 5.88056 8.375 6.2144 8.375 6.5625V35.4375C8.375 35.7856 8.51328 36.1194 8.75942 36.3656C9.00556 36.6117 9.3394 36.75 9.6875 36.75H33.3125Z" stroke="white" stroke-width="2" stroke-linecap="round" stroke-linejoin="round"/>
</svg>
