<svg width="365" height="474" viewBox="0 0 365 474" fill="none" xmlns="http://www.w3.org/2000/svg">
<path d="M258.097 24.4541C266.576 34.1363 272.123 45.5715 277.513 56.6834C280.799 63.4411 284.189 70.3757 288.204 76.9949C300.509 97.1516 315.792 115.331 333.535 130.917L336.551 133.547C349.355 144.677 363.866 157.299 364.492 174.485C364.969 187.513 357.353 200.376 341.199 213.892C330.645 222.713 323.109 230.199 317.485 237.503C310.053 247.149 306.238 256.331 306.128 264.817C306.011 274.701 310.867 284.088 320.624 292.642C324.748 296.267 329.351 299.604 333.824 302.785C342.143 308.762 350.739 314.938 356.516 323.43C357.015 324.171 357.489 324.92 357.948 325.691C362.094 332.93 364.167 341.17 363.94 349.509C363.78 357.924 361.87 366.213 358.332 373.849C350.881 390.115 337.608 402.723 326.88 411.894C312.231 424.54 296.638 436.05 280.238 446.323C261.323 458.023 243.641 466.059 227.663 470.223C212.616 474.15 196.83 474.277 181.722 470.591C165.817 466.556 152.919 458.225 144.457 446.516C136.321 435.269 132.595 421.575 128.993 408.363C127.517 402.936 125.995 397.329 124.194 391.976C119.194 377.285 111.707 363.562 102.059 351.407C92.4495 339.219 80.9096 328.686 67.8971 320.226C61.3619 316.124 54.6135 312.371 47.6804 308.985C28.8916 299.411 11.1315 290.354 3.30412 266.217C-1.09379 252.669 0.188259 237.491 6.99883 222.389C12.982 209.081 23.114 196.148 35.522 185.982C48.5707 175.281 63.5146 166.867 77.9797 158.728C89.6441 152.046 101.721 145.241 112.704 137.339C125.005 128.442 141.44 113.575 149.742 93.2683C153.516 84.0455 154.804 74.0337 156.05 64.3428C157.117 56.1213 158.223 47.6016 160.797 39.4473C163.898 29.7524 170.193 16.4611 182.596 8.21843C192.55 1.60491 204.906 -0.615734 218.407 1.81294C231.054 4.1763 242.806 9.9735 252.378 18.5698C254.398 20.4178 256.307 22.3826 258.097 24.4541ZM310.966 110.125C302.108 100.003 294.129 89.1456 287.114 77.6695C283.066 71.0344 279.661 64.0281 276.367 57.246C269.578 43.2591 263.165 30.0556 251.43 19.4961C242.047 11.0659 230.528 5.37604 218.13 3.04794C205.027 0.694304 192.984 2.83894 183.312 9.26734C171.226 17.3064 165.059 30.3229 162.03 39.8289C159.459 47.867 158.374 56.3194 157.324 64.4966C156.056 74.2662 154.746 84.3568 150.939 93.7501C142.508 114.331 125.9 129.362 113.469 138.359C102.417 146.346 90.3287 153.149 78.6304 159.734C64.2156 167.844 49.322 176.23 36.3481 186.893C24.0811 196.961 14.0965 209.657 8.17113 222.88C1.4965 237.742 0.233185 252.596 4.5322 265.828C12.2027 289.467 29.721 298.411 48.2694 307.861C55.2421 311.269 62.0305 315.041 68.6063 319.163C81.738 327.696 93.3805 338.326 103.07 350.629C112.806 362.898 120.363 376.748 125.412 391.575C127.23 396.976 128.762 402.597 130.27 408.051C133.848 421.178 137.533 434.739 145.541 445.805C153.824 457.269 166.465 465.428 182.121 469.407C197.016 473.034 212.579 472.903 227.411 469.024C243.265 464.914 260.836 456.922 279.639 445.278C295.964 435.033 311.485 423.561 326.068 410.961C336.696 401.846 349.856 389.388 357.194 373.364C360.65 365.884 362.521 357.77 362.689 349.533C362.906 341.427 360.892 333.418 356.868 326.379C356.44 325.635 355.964 324.897 355.474 324.181C349.835 315.882 341.323 309.775 333.09 303.856C328.611 300.639 323.971 297.309 319.796 293.63C309.75 284.794 304.711 275.104 304.873 264.876C304.984 256.11 308.893 246.66 316.492 236.803C322.189 229.381 329.775 221.865 340.407 212.985C356.23 199.776 363.701 187.22 363.24 174.602C363.033 167.218 359.989 160.037 354.136 152.666C348.941 146.162 342.219 140.276 335.723 134.629L332.706 131.999C324.989 125.191 317.726 117.884 310.966 110.125Z" fill="white" fill-opacity="0.27"/>
</svg>
