<!-- Generated by IcoMoon.io -->
<svg version="1.1" xmlns="http://www.w3.org/2000/svg" width="1024" height="1024" viewBox="0 0 1024 1024">
<title></title>
<g id="icomoon-ignore">
</g>
<path fill="red" d="M170.667 213.333h298.667c35.371 0 67.285 14.293 90.496 37.504s37.504 55.125 37.504 90.496v409.003l-140.501-140.501c-16.683-16.683-43.691-16.683-60.331 0s-16.683 43.691 0 60.331l213.333 213.333c3.925 3.925 8.619 7.083 13.824 9.259 10.453 4.309 22.229 4.309 32.683 0 5.035-2.091 9.728-5.163 13.824-9.259l213.333-213.333c16.683-16.683 16.683-43.691 0-60.331s-43.691-16.683-60.331 0l-140.501 140.501v-409.003c0-58.88-23.936-112.299-62.464-150.869s-91.989-62.464-150.869-62.464h-298.667c-23.552 0-42.667 19.115-42.667 42.667s19.115 42.667 42.667 42.667z"></path>
</svg>
