<svg width="307" height="357" viewBox="0 0 307 357" fill="none" xmlns="http://www.w3.org/2000/svg">
<path d="M304.065 50.1284C305.035 61.2167 303.063 72.03 301.147 82.5379C299.987 88.9319 298.81 95.5033 298.23 102.173C296.518 122.525 297.894 143.019 302.312 162.96L303.074 166.336C306.322 180.644 309.999 196.865 301.655 209.178C295.332 218.512 283.446 223.597 265.268 224.775C253.397 225.538 244.313 226.912 236.657 229.136C226.543 232.07 219.19 236.528 214.777 242.393C209.646 249.23 208.239 258.261 210.677 269.215C211.702 273.851 213.21 278.532 214.706 283.037C217.457 291.458 220.3 300.159 219.992 309.037C219.962 309.808 219.91 310.573 219.837 311.346C219.031 318.515 216.267 325.324 211.849 331.027C207.438 336.817 201.87 341.626 195.5 345.147C181.99 352.69 166.287 354.707 154.115 355.625C137.432 356.966 120.671 357.031 103.978 355.82C84.8019 354.32 68.3583 350.894 55.0813 345.636C42.5753 340.689 31.4947 332.712 22.8356 322.422C13.7986 311.48 9.0547 299.076 9.13258 286.583C9.20112 274.579 13.5976 263.119 17.834 252.06C19.5766 247.519 21.3793 242.828 22.8575 238.173C26.8745 225.367 28.6609 211.966 28.1388 198.555C27.6603 185.14 24.9892 171.895 20.2315 159.343C17.767 153.142 14.975 147.076 11.8672 141.17C3.64804 124.89 -4.11805 109.497 2.75198 88.6547C6.60499 76.9539 15.2541 67.0178 27.7221 59.9595C38.6965 53.7297 52.3743 49.8814 66.2264 49.1269C80.7989 48.3266 95.5257 50.0902 109.777 51.8016C121.331 53.0977 133.234 54.5197 144.936 54.6168C158.065 54.6933 177.129 52.7157 193.297 42.7876C200.642 38.28 206.656 31.9517 212.477 25.8261C217.422 20.6343 222.546 15.2542 228.509 10.8793C235.626 5.69833 246.809 -0.359729 259.675 0.22541C270 0.695591 279.756 5.45886 287.937 14.0517C295.554 22.1619 300.793 32.2116 303.08 43.1004C303.545 45.4218 303.874 47.7685 304.065 50.1284ZM297.187 136.921C296.177 125.332 296.156 113.679 297.124 102.087C297.69 95.3891 298.894 88.7605 300.06 82.3451C302.468 69.1162 304.739 56.6263 301.945 43.2624C299.705 32.5859 294.574 22.7304 287.113 14.772C279.172 6.43505 269.672 1.77868 259.639 1.32265C247.098 0.757875 236.145 6.69008 229.174 11.7756C223.274 16.0712 218.198 21.4147 213.288 26.5844C207.411 32.7538 201.342 39.1259 193.886 43.7352C177.488 53.7892 158.22 55.793 144.948 55.7199C133.156 55.6462 121.245 54.2173 109.718 52.8357C95.5156 51.1302 80.8385 49.3725 66.337 50.1852C52.6336 50.9431 39.1799 54.7011 28.2896 60.9005C16.0385 67.8616 7.56806 77.5812 3.80748 89.011C-2.91736 109.425 4.73772 124.616 12.8528 140.687C15.9771 146.627 18.7865 152.728 21.2691 158.964C26.073 171.627 28.7663 184.993 29.2415 198.528C29.7669 212.064 27.9644 225.589 23.9126 238.515C22.4213 243.213 20.619 247.918 18.8843 252.494C14.6744 263.482 10.3177 274.827 10.2515 286.641C10.1744 298.872 14.8272 311.024 23.7187 321.799C32.2593 331.94 43.1864 339.8 55.5175 344.671C68.6807 349.903 85.0247 353.303 104.095 354.784C120.72 355.976 137.412 355.901 154.026 354.559C166.098 353.629 181.647 351.659 194.954 344.227C201.187 340.773 206.638 336.067 210.964 330.405C215.256 324.86 217.943 318.242 218.731 311.274C218.812 310.536 218.858 309.779 218.882 309.028C219.187 300.356 216.368 291.746 213.647 283.409C212.164 278.876 210.628 274.182 209.594 269.482C207.098 258.183 208.533 248.847 213.871 241.792C218.428 235.733 225.983 231.135 236.322 228.139C244.089 225.871 253.223 224.503 265.179 223.738C282.969 222.605 294.597 217.66 300.722 208.62C304.35 203.362 305.894 196.795 305.576 188.662C305.274 181.469 303.591 173.927 301.943 166.668L301.182 163.291C299.274 154.598 297.94 145.789 297.187 136.921Z" fill="black"/>
</svg>
