<svg width="22" height="32" viewBox="0 0 22 32" fill="none" xmlns="http://www.w3.org/2000/svg">
<path d="M11.0059 1C5.48503 1 1.00586 5.42738 1.00586 10.8803C1.00586 17.1546 7.67253 27.0977 10.1204 30.532C10.2221 30.677 10.3552 30.7949 10.5091 30.8763C10.663 30.9576 10.8332 31 11.0059 31C11.1785 31 11.3487 30.9576 11.5026 30.8763C11.6565 30.7949 11.7897 30.677 11.8913 30.532C14.3392 27.0991 21.0059 17.1597 21.0059 10.8803C21.0059 5.42738 16.5267 1 11.0059 1Z" stroke="#40DDB6" stroke-width="2" stroke-linecap="round" stroke-linejoin="round"/>
<path d="M11.0059 16C13.215 16 15.0059 14.2091 15.0059 12C15.0059 9.79086 13.215 8 11.0059 8C8.79672 8 7.00586 9.79086 7.00586 12C7.00586 14.2091 8.79672 16 11.0059 16Z" stroke="#40DDB6" stroke-width="2" stroke-linecap="round" stroke-linejoin="round"/>
</svg>
