<svg width="50" height="50" viewBox="0 0 50 50" fill="none" xmlns="http://www.w3.org/2000/svg">
<rect width="50" height="50" fill="none"/>
<rect width="50" height="50" rx="25" fill="#40DDB6"/>
<path fill-rule="evenodd" clip-rule="evenodd" d="M36.9154 25.0691C36.9154 18.7326 31.5799 13.5947 24.9997 13.5947C18.4195 13.5947 13.084 18.7326 13.084 25.0691C13.084 30.7961 17.4407 35.5431 23.1379 36.4047V28.3869H20.1116V25.0691H23.1379V22.5412C23.1379 19.6659 24.9172 18.0764 27.6387 18.0764C28.9425 18.0764 30.3064 18.3008 30.3064 18.3008V21.1248H28.8031C27.3238 21.1248 26.861 22.0089 26.861 22.9177V25.0691H30.1655L29.6378 28.3869H26.8615V36.4057C32.5587 35.5446 36.9154 30.7976 36.9154 25.0691V25.0691Z" fill="white"/>
</svg>
