<svg width="50" height="50" viewBox="0 0 50 50" fill="none" xmlns="http://www.w3.org/2000/svg">
<rect width="50" height="50" fill="none"/>
<g id="Twiter">
<rect id="Rectangle 292" width="50" height="50" rx="25" fill="#40DDB6"/>
<path id="Vector" d="M37.767 17.207C36.8092 17.6232 35.7958 17.8974 34.7589 18.0209C35.8487 17.3828 36.6682 16.369 37.0638 15.1696C36.0335 15.7721 34.9081 16.1948 33.7359 16.4197C33.2423 15.9024 32.6487 15.4909 31.9911 15.2101C31.3335 14.9294 30.6257 14.7853 29.9107 14.7866C27.0158 14.7866 24.6731 17.0953 24.6731 19.9412C24.671 20.3371 24.7164 20.7318 24.8082 21.1168C22.7323 21.0195 20.6997 20.49 18.8402 19.5621C16.9808 18.6342 15.3355 17.3284 14.0096 15.7282C13.5444 16.5123 13.2984 17.407 13.2973 18.3188C13.2973 20.1061 14.2298 21.686 15.6379 22.6116C14.8036 22.5918 13.9865 22.371 13.2558 21.968V22.0318C13.2558 24.532 15.0644 26.6119 17.4582 27.0853C17.0081 27.2053 16.5442 27.2661 16.0783 27.2662C15.7478 27.2668 15.418 27.2347 15.0937 27.1704C15.7592 29.2185 17.696 30.7079 19.9903 30.7505C18.126 32.1872 15.8372 32.9638 13.4835 32.9581C13.0657 32.9575 12.6483 32.9326 12.2334 32.8836C14.6278 34.4125 17.4111 35.2213 20.252 35.2135C29.8995 35.2135 35.1701 27.3566 35.1701 20.5423C35.1701 20.3189 35.1642 20.0955 35.1536 19.8774C36.1766 19.1497 37.0616 18.2454 37.767 17.207V17.207Z" fill="white"/>
</g>
</svg>
