<svg width="361" height="422" viewBox="0 0 361 422" fill="none" xmlns="http://www.w3.org/2000/svg">
<path d="M347.906 55.0156C349.757 67.752 348.194 80.3649 346.675 92.6215C345.758 100.079 344.832 107.743 344.602 115.481C343.968 139.088 346.908 162.656 353.323 185.384L354.424 189.231C359.117 205.534 364.431 224.017 355.611 238.781C348.928 249.974 335.541 256.628 314.634 259.186C300.98 260.849 290.585 263.035 281.893 266.106C270.411 270.16 262.216 275.791 257.509 282.853C252.036 291.084 251.008 301.603 254.544 314.087C256.034 319.371 258.082 324.676 260.106 329.777C263.838 339.317 267.693 349.174 267.924 359.442C267.939 360.335 267.929 361.222 267.896 362.119C267.439 370.448 264.697 378.491 259.973 385.365C255.263 392.34 249.152 398.259 242.03 402.743C226.932 412.342 208.937 415.705 194.947 417.568C175.776 420.215 156.432 421.396 137.082 421.098C114.845 420.632 95.6369 417.76 79.9633 412.566C65.2003 407.68 51.8828 399.202 41.2082 387.894C30.0545 375.859 23.7604 361.852 23.0266 347.425C22.3142 333.562 26.6339 320.043 30.7952 306.997C32.5075 301.64 34.2793 296.106 35.6787 290.635C39.4717 275.587 40.6504 259.999 39.1634 244.552C37.7266 229.098 33.7698 213.983 27.4498 199.807C24.196 192.81 20.573 185.992 16.596 179.38C6.03435 161.128 -3.94575 143.87 2.61084 119.357C6.28729 105.595 15.6167 93.5548 29.5444 84.5846C41.8025 76.6693 57.3385 71.3251 73.2796 69.5408C90.0493 67.6562 107.166 68.721 123.731 69.757C137.154 70.4915 150.989 71.3482 164.504 70.6888C179.666 69.9115 201.542 66.3716 219.552 53.8445C227.734 48.1567 234.259 40.4548 240.575 32.9996C245.941 26.6802 251.502 20.1315 258.097 14.6881C265.971 8.23788 278.482 0.507065 293.373 0.334258C305.322 0.196332 316.899 5.05178 326.91 14.432C336.238 23.2922 342.948 34.5482 346.306 46.9674C346.997 49.6166 347.531 52.3039 347.906 55.0156ZM345.689 155.662C343.759 142.351 342.967 128.9 343.32 115.454C343.531 107.685 344.484 99.9535 345.408 92.4706C347.316 77.0404 349.113 62.4723 345.007 47.2292C341.717 35.052 335.144 24.013 326.006 15.3178C316.289 6.21724 305.016 1.46822 293.403 1.60335C278.889 1.77819 266.635 9.34853 258.924 15.6788C252.396 21.0267 246.888 27.5299 241.561 33.8216C235.184 41.331 228.598 49.0871 220.294 54.8996C202.027 67.5872 179.916 71.1708 164.591 71.9614C150.973 72.6538 137.129 71.7896 123.73 70.9547C107.223 69.9222 90.164 68.8609 73.4771 70.7552C57.7077 72.5337 42.4246 77.7589 30.2616 85.6335C16.5779 94.4772 7.44042 106.256 3.8528 119.698C-2.5644 143.708 7.27419 160.739 17.7018 178.756C21.7002 185.408 25.3456 192.266 28.6227 199.301C35.0032 213.603 38.9936 228.854 40.4347 244.448C41.9336 260.039 40.7445 275.772 36.9194 290.961C35.5076 296.482 33.7372 302.032 32.0363 307.429C27.9009 320.391 23.6195 333.776 24.3221 347.418C25.0394 361.543 31.2118 375.264 42.1867 387.117C52.7146 398.26 65.8471 406.613 80.4032 411.423C95.9438 416.595 115.036 419.443 137.147 419.895C156.418 420.175 175.682 418.988 194.773 416.343C208.648 414.473 226.467 411.174 241.34 401.717C248.307 397.319 254.289 391.527 258.91 384.706C263.499 378.021 266.165 370.204 266.615 362.109C266.66 361.252 266.663 360.374 266.641 359.506C266.422 349.475 262.599 339.721 258.908 330.277C256.898 325.141 254.815 319.823 253.312 314.466C249.686 301.587 250.727 290.715 256.424 282.219C261.284 274.924 269.703 269.118 281.441 264.978C290.258 261.847 300.712 259.666 314.463 257.994C334.925 255.513 348.023 249.039 354.497 238.199C358.338 231.889 359.689 224.207 358.785 214.839C357.962 206.555 355.522 197.96 353.141 189.689L352.039 185.841C349.264 175.931 347.143 165.85 345.689 155.662Z" fill="white" fill-opacity="0.27"/>
</svg>
