<svg width="18" height="18" viewBox="0 0 18 18" fill="none" xmlns="http://www.w3.org/2000/svg">
<path d="M14.6919 2H2.38424C1.36464 2 0.538086 2.83947 0.538086 3.875V15.125C0.538086 16.1605 1.36464 17 2.38424 17H14.6919C15.7115 17 16.5381 16.1605 16.5381 15.125V3.875C16.5381 2.83947 15.7115 2 14.6919 2Z" fill="#F8F8F8" stroke="black" stroke-linejoin="round"/>
<path d="M10.5381 9C11.0904 9 11.5381 8.55228 11.5381 8C11.5381 7.44772 11.0904 7 10.5381 7C9.9858 7 9.53809 7.44772 9.53809 8C9.53809 8.55228 9.9858 9 10.5381 9Z" fill="#37393F"/>
<path d="M13.5381 9C14.0904 9 14.5381 8.55228 14.5381 8C14.5381 7.44772 14.0904 7 13.5381 7C12.9858 7 12.5381 7.44772 12.5381 8C12.5381 8.55228 12.9858 9 13.5381 9Z" fill="#37393F"/>
<path d="M10.5381 12C11.0904 12 11.5381 11.5523 11.5381 11C11.5381 10.4477 11.0904 10 10.5381 10C9.9858 10 9.53809 10.4477 9.53809 11C9.53809 11.5523 9.9858 12 10.5381 12Z" fill="#37393F"/>
<path d="M13.5381 12C14.0904 12 14.5381 11.5523 14.5381 11C14.5381 10.4477 14.0904 10 13.5381 10C12.9858 10 12.5381 10.4477 12.5381 11C12.5381 11.5523 12.9858 12 13.5381 12Z" fill="#37393F"/>
<path d="M3.53809 12C4.09037 12 4.53809 11.5523 4.53809 11C4.53809 10.4477 4.09037 10 3.53809 10C2.9858 10 2.53809 10.4477 2.53809 11C2.53809 11.5523 2.9858 12 3.53809 12Z" fill="#37393F"/>
<path d="M7.53809 12C8.09037 12 8.53809 11.5523 8.53809 11C8.53809 10.4477 8.09037 10 7.53809 10C6.9858 10 6.53809 10.4477 6.53809 11C6.53809 11.5523 6.9858 12 7.53809 12Z" fill="#37393F"/>
<path d="M3.53809 15C4.09037 15 4.53809 14.5523 4.53809 14C4.53809 13.4477 4.09037 13 3.53809 13C2.9858 13 2.53809 13.4477 2.53809 14C2.53809 14.5523 2.9858 15 3.53809 15Z" fill="#37393F"/>
<path d="M7.53809 15C8.09037 15 8.53809 14.5523 8.53809 14C8.53809 13.4477 8.09037 13 7.53809 13C6.9858 13 6.53809 13.4477 6.53809 14C6.53809 14.5523 6.9858 15 7.53809 15Z" fill="#37393F"/>
<path d="M10.5381 15C11.0904 15 11.5381 14.5523 11.5381 14C11.5381 13.4477 11.0904 13 10.5381 13C9.9858 13 9.53809 13.4477 9.53809 14C9.53809 14.5523 9.9858 15 10.5381 15Z" fill="#37393F"/>
<path d="M3.53809 1V2V1ZM13.5381 1V2V1Z" fill="#F8F8F8"/>
<path d="M13.5381 1V2M3.53809 1V2V1Z" stroke="black" stroke-linecap="round" stroke-linejoin="round"/>
<path d="M16.5381 5H0.538086H16.5381Z" fill="#F8F8F8"/>
<path d="M16.5381 5H0.538086" stroke="black" stroke-linejoin="round"/>
</svg>
